<svg id="Capa_1" enable-background="new 0 0 512 512" height="512" viewBox="0 0 512 512" width="512" xmlns="http://www.w3.org/2000/svg"><g><circle cx="256" cy="256" fill="#bcfcff" r="256"/><g><path d="m512 256c0-.493-.016-.981-.019-1.473l-104.988-104.988-101.078 63.826-79.928-79.928-107.44 157.88 210.184 210.184c105.953-31.342 183.269-129.384 183.269-245.501z" fill="#7ed7f5"/></g><g><g><path d="m256.046 314.793-35.018-60.976 34.972-55.442-30.013-64.938c-14.527-11.178-32.712-17.834-52.461-17.834-47.577 0-86.145 38.569-86.145 86.145 0 1.659.058 3.304.151 4.94h-.151c0 41.591 19.824 80.693 53.375 105.274l115.244 84.435 7.691-23.992-7.718-19.568z" fill="#f599c6"/></g><g><path d="m424.619 201.748c0-47.576-38.568-86.145-86.145-86.145-29.102 0-54.823 14.437-70.414 36.535l22.912 48.454-34.837 54.115 31.656 55.124-31.791 42.971v43.596l115.244-84.436c33.55-24.581 53.375-63.682 53.375-105.274h-.15c.092-1.637.15-3.282.15-4.94z" fill="#ef5ca4"/></g></g></g></svg>